<?xml version="1.0" encoding="utf-8"?>
<!-- Generator: Adobe Illustrator 25.4.1, SVG Export Plug-In . SVG Version: 6.00 Build 0)  -->
<svg version="1.1" id="Layer_1" xmlns="http://www.w3.org/2000/svg" xmlns:xlink="http://www.w3.org/1999/xlink" x="0px" y="0px"
	 viewBox="0 0 114.3 7.3" style="enable-background:new 0 0 114.3 7.3;" xml:space="preserve">
<g id="Layer_2_00000012452409048480101370000005213439275742769591_">
	<g id="Layer_1-2">
		<rect x="59.8" y="3" transform="matrix(0.7071 -0.7071 0.7071 0.7071 15.1337 43.8262)" width="1.4" height="1.4"/>
		<rect x="62.9" y="2.6" transform="matrix(0.7071 -0.7071 0.7071 0.7071 16.1466 46.2784)" width="2.1" height="2.1"/>
		<rect x="67" y="3" transform="matrix(0.7071 -0.7071 0.7071 0.7071 17.2537 48.9454)" width="1.4" height="1.4"/>
		<rect x="70.4" y="2.6" transform="matrix(0.759 -0.651 0.651 0.759 14.8494 47.423)" width="2.1" height="2.1"/>
		<rect x="49.4" y="3" transform="matrix(0.7071 -0.7071 0.7071 0.7071 12.0966 36.5053)" width="1.4" height="1.4"/>
		<rect x="45.3" y="2.6" transform="matrix(0.7071 -0.7071 0.7071 0.7071 10.9937 33.8283)" width="2.1" height="2.1"/>
		<rect x="41.9" y="3" transform="matrix(0.7072 -0.707 0.707 0.7072 9.8762 31.1536)" width="1.4" height="1.4"/>
		<rect x="37.7" y="2.6" transform="matrix(0.759 -0.651 0.651 0.759 6.9715 26.1217)" width="2.1" height="2.1"/>
		<rect x="52.8" y="1.1" transform="matrix(0.7071 -0.7071 0.7071 0.7071 13.6387 40.2177)" width="5.2" height="5.2"/>
		<polygon points="72,3 114.3,3.5 114.3,3.8 72,4.3 		"/>
		<polygon points="38.2,4.3 0,3.8 0,3.5 38.2,3 		"/>
	</g>
</g>
</svg>
